`                            __     __   __            __  __ 
                  .-----..--|  |.--|  | |  |--..---.-.|  ||  |
                  |  _  ||  _  ||  _  | |  _  ||  _  ||  ||  |
                  |_____||_____||_____| |_____||___._||__||__|
                                  -links.com   `                

Crank is a 2006 American action/thriller film, written and directed by both Mark Neveldine and Brian Taylor, and starring Jason Statham, Amy Smart, Jose Pablo Cantillo, Efren Ramirez, and Dwight Yoakam. The plot centers on a British hitman in Los Angeles named Chev Chelios who is poisoned and must keep his adrenaline flowing constantly in order to keep himself alive, and in so doing causes mayhem, gets into fights with other gangsters, has altercations with the police and takes numerous drugs. The film's title comes from the slang word for methamphetamine. Produced and distributed by Lakeshore Entertainment and Lions Gate Films, it was released in the United States on September 1, 2006 in 2,515 theaters. The film was generally well received.


Screen Shots
 
http://i724.photobucket.com/albums/ww246/oddball-links/Crank1/1-1.jpg
 
http://i724.photobucket.com/albums/ww246/oddball-links/Crank1/2.jpg
 
http://i724.photobucket.com/albums/ww246/oddball-links/Crank1/3.jpg
 
http://i724.photobucket.com/albums/ww246/oddball-links/Crank1/4.jpg
 
http://i724.photobucket.com/albums/ww246/oddball-links/Crank1/5.jpg



                                    +-+-+-+-+
                                    |c|a|s|t|
                                    +-+-+-+-+
`                                                                                                          Actor                              Role

                      Jason Statham ................... Chev Chelios 
                      Amy Smart ....................... Eve Lydon 
                      Jose Pablo Cantillo ............. Ricky Verona 
                      Efren Ramirez ................... Kaylo 
                      Dwight Yoakam ................... Doc Miles 
                      Carlos Sanz ..................... Carlito 
                      Keone Young ..................... Don Kim 
                      Reno Wilson ..................... Orlando 
                      Jay Xcala ....................... Alex Verona 
                      Edi Gathegi ..................... Haitian cab driver 
General
Complete name                    : Crank
Format                           : AVI
Format/Info                      : Audio Video Interleave
File size                        : 1.32 GiB
Duration                         : 1h 24mn
Overall bit rate                 : 2 231 Kbps

Video
Format                           : MPEG-4 Visual
Format profile                   : Streaming Video@L1
Format settings, BVOP            : Yes
Format settings, QPel            : No
Format settings, GMC             : No warppoints
Format settings, Matrix          : Default
Muxing mode                      : Packed bitstream
Codec ID                         : XVID
Codec ID/Hint                    : XviD
Duration                         : 1h 24mn
Bit rate                         : 2 027 Kbps
Width                            : 1 024 pixels
Height                           : 582 pixels
Display aspect ratio             : 16/9
Frame rate                       : 29.970 fps
Resolution                       : 24 bits
Colorimetry                      : 4:2:0
Scan type                        : Progressive
Bits/(Pixel*Frame)               : 0.113
Stream size                      : 1.20 GiB (91%)
Writing library                  : XviD 1.1.0 (UTC 2005-11-22)

Audio
Format                           : MPEG Audio
Format version                   : Version 1
Format profile                   : Layer 3
Codec ID                         : 55
Codec ID/Hint                    : MP3
Duration                         : 1h 24mn
Bit rate mode                    : Constant
Bit rate                         : 192 Kbps
Channel(s)                       : 2 channels
Sampling rate                    : 44.1 KHz
Resolution                       : 16 bits
Video delay                      : 26ms
Stream size                      : 116 MiB (9%)
Alignment                        : Split accross interleaves
Interleave, duration             : 33 ms (1.00 video frame)
Title                            : Audio Stream


                     
  For more oddball torrents  http://thepiratebay.org/user/oddball-links `                                                                                                            Please seed after downloading `                                                                                            :::===  :::===== :::===== :::====       :::= === :::====  :::====
        :::     :::      :::      :::  ===      :::===== :::  === :::====
         =====  ======   ======   ===  ===      ======== ===  ===   ===  
            === ===      ===      ===  ===      === ==== ===  ===   ===  
        ======  ======== ======== =======       ===  ===  ======    ===  
                                                                         
                  :::=====  :::====  :::===== :::===== :::==== 
                  :::       :::  === :::      :::      :::  ===
                  === ===== =======  ======   ======   ===  ===
                  ===   === === ===  ===      ===      ===  ===
                   =======  ===  === ======== ======== =======